<svg preserveAspectRatio="none" overflow="visible" style="display: block;" width="40" height="40" viewBox="0 0 40 40" fill="none" xmlns="http://www.w3.org/2000/svg">
<!-- Instagram sólido, no peso do LinkedIn e do YouTube.
     O ícone anterior era só o contorno da câmera em traço fino, e ao lado
     dos outros dois — que são glifo branco cheio sobre o disco — sumia.
     Aqui a moldura é uma máscara: o disco vaza pelos vãos, e o que se vê
     é o mesmo desenho em positivo. -->
<circle id="disco-ip" cx="20" cy="20" r="20" fill="#352005"/>
<g id="Instagram" fill="white">
  <path fill-rule="evenodd" clip-rule="evenodd" d="M15.6 9.4h8.8c3.42 0 6.2 2.78 6.2 6.2v8.8c0 3.42-2.78 6.2-6.2 6.2h-8.8c-3.42 0-6.2-2.78-6.2-6.2v-8.8c0-3.42 2.78-6.2 6.2-6.2Zm0 2.9a3.3 3.3 0 0 0-3.3 3.3v8.8a3.3 3.3 0 0 0 3.3 3.3h8.8a3.3 3.3 0 0 0 3.3-3.3v-8.8a3.3 3.3 0 0 0-3.3-3.3h-8.8Z"/>
  <path fill-rule="evenodd" clip-rule="evenodd" d="M20 14.55a5.45 5.45 0 1 1 0 10.9 5.45 5.45 0 0 1 0-10.9Zm0 2.9a2.55 2.55 0 1 0 0 5.1 2.55 2.55 0 0 0 0-5.1Z"/>
  <circle cx="25.75" cy="14.25" r="1.45"/>
</g>
</svg>
