<svg preserveAspectRatio="none" overflow="visible" style="display: block;" width="56.2234" height="73.0001" viewBox="0 0 56.2234 73.0001" fill="none" xmlns="http://www.w3.org/2000/svg">
<g id="Group">
<path id="Vector" d="M25.6305 72.9241C22.2502 72.5818 19.2541 71.7437 16.3487 70.34C9.69988 67.1203 4.58756 61.2328 2.3806 54.2417C1.88473 52.6703 1.60537 51.3992 1.30505 49.3878C1.20728 48.6964 1.19331 46.6501 1.17236 28.5753L1.1514 8.53111L1.96155 8.00731C2.40853 7.72096 2.79964 7.47652 2.83456 7.46255C2.86948 7.44859 2.9044 16.3742 2.91837 27.2973C2.93932 49.1015 2.91138 47.5021 3.35138 49.8418C4.99962 58.5299 10.943 65.8702 19.1283 69.3273C21.5029 70.333 23.9054 70.9545 26.6083 71.2549C27.9981 71.4085 30.652 71.4155 31.972 71.2549C35.3942 70.8568 38.53 69.865 41.3516 68.3006C51.0594 62.9089 56.0879 52.1744 54.0137 41.2584C53.1127 36.5162 50.9058 32.1442 47.5045 28.3868C45.3535 26.0122 42.2735 23.7424 39.2773 22.3316C36.4558 20.9976 33.2222 20.1386 30.219 19.9081L29.5765 19.8592V32.4375V45.0158L28.7943 45.5326C28.3613 45.812 27.9632 46.0634 27.9213 46.0983C27.8514 46.1402 27.8305 42.3688 27.8305 27.3392V8.53111L28.6476 8.00731C29.0946 7.72096 29.4857 7.47652 29.5206 7.46255C29.5486 7.44859 29.5765 9.85808 29.5765 12.8123V18.1831L30.645 18.225C38.2856 18.5532 45.5071 22.2548 50.4309 28.3868C53.5807 32.3118 55.5152 37.033 56.1298 42.3339C56.2695 43.5142 56.2486 46.8456 56.0949 48.0958C55.4245 53.5433 53.4619 58.2296 50.0677 62.4829C49.1109 63.6842 46.9877 65.8073 45.8004 66.7502C41.4983 70.1793 36.6164 72.2256 31.2177 72.8542C29.8558 73.0148 26.8876 73.0498 25.6305 72.9241Z" fill="#352005"/>
<path id="Vector_2" d="M28.2567 53.0543C26.825 52.761 26.1824 51.008 27.0834 49.8277C28.2497 48.2982 30.7151 49.1433 30.7151 51.0709C30.7151 52.3489 29.5278 53.3058 28.2567 53.0543Z" fill="#352005"/>
<path id="Vector_3" d="M7.65367 29.2388L7.07399 29.2039L7.75145 28.4007C8.68033 27.3042 10.3565 25.642 11.4251 24.762C15.371 21.5005 19.9526 19.3843 24.8205 18.5602C26.1335 18.3367 26.0147 18.2809 26.0147 19.1469C26.0147 19.5519 26.0078 19.8802 25.9938 19.8802C25.9868 19.8802 25.5817 19.9291 25.1068 19.985C20.1481 20.5926 15.8809 22.3735 12.0816 25.4325C11.2086 26.1379 9.76984 27.5207 9.09937 28.3099C8.21938 29.3506 8.33112 29.2807 7.65367 29.2388Z" fill="#352005"/>
<path id="Vector_4" d="M1.5009 3.96349C0.900275 3.76794 0.446312 3.38381 0.16695 2.83906C-0.0495554 2.41303 -0.0565394 1.62383 0.152982 1.1559C0.327583 0.771778 0.697738 0.380672 1.10281 0.17115C1.52186 -0.0523394 2.52057 -0.0593235 2.93263 0.164166C4.44119 0.974316 4.40627 3.04858 2.88374 3.82381C2.57645 3.97746 1.78725 4.06127 1.5009 3.96349Z" fill="#352005"/>
</g>
</svg>
